<svg id="レイヤー_1" data-name="レイヤー 1" xmlns="http://www.w3.org/2000/svg" viewBox="0 0 1024.18 531.35" width="176"><defs><style>.cls-1{fill:#59b55b;}</style></defs><path class="cls-1" d="M1023.73,403.68c-1.27-2.75-5.7-1.06-5.7-1.06-16.39,6.48-32.31,15.05-49.3,18.89-21.24,4.8-42.47,4.7-63.47-6.77-13.7-7.48-26-15.57-34.86-27.78-12.51-17.15-44.53-65.53-48.34-72.21-3.16-5.54-6.71-10.9-9.87-16.44-2.5-4.38.58-7.22,4.46-9.69,14.85-9.45,29.19-19.72,44.23-28.84,11.82-7.16,18.27-17.71,22.67-30.15,4.69-13.25,2.91-25.08-4.77-37.23-8.48-13.42-28.63-23.32-43-16.73-17.3,7.94-37.26,18.84-62,35.84L770,214.38l1.45-4.69c5.1-16.58,13.19-35.28,19.43-49.93C801,136,826.33,73.37,817.1,53.71c-6.63-14.19-13.63-28.37-22.19-41.44C787-1,770.81-5,775.47,7.84c5.64,17.09.83,33.54-3.83,49.56-7.34,25.24-15.92,50.13-24.37,75-10.36,30.53-20.66,61.09-31.86,91.32-7.37,19.92-15,39.95-24.92,58.64h0c-4.5,8.71-19.14,29.37-27.45,39.14s-17.22,22.91-26.7,22.91c-11,0-2.68-27.49-2.68-27.49.67-2,1.29-4,2-5.93,4.9-13.62,15.69-38.45,39.4-80.1,8.16-14.89,6.18-28.92-4.32-42-9.3-11.58-18.68-11.6-27.72,0-3.79,4.3-7.09,4.87-10.17,3.25-4.73-2.76-9.32-5.48-14.07-7.85-9.55-4.76-18.81-8.11-30.45-5.09-20.46,5.31-33.86,18.69-45.63,34.68-19.8,26.91-36,55.6-40.13,89.43-1.83,15-3.61,30.24,3.07,44.83,6.82,14.92,25.6,21.82,36.66,12.19a266.25,266.25,0,0,0,29-30.18c6.24-7.46,17.67-24.79,17.78-24.91l5.28-8s-10.51,66.67,31.34,66.67c0,0,10.7.84,33.24-27.08l23.89-28.94c2.92-3.83,5.86-1.15,5.33,4.71-2.11,25.93,9.56,45.42,28.87,61.1,9.4,7.56,14.49,1.36,13-6-3.6-15.14-.33-29.32,3.89-43.77,10.07-34.45,22.2-68,41-98.75,10.3-16.85,26.6-27,44.08-34.89,6.73-3,13.91-.39,18.39,6.24,4.31,6.38,4.81,15-.44,20.93-5.95,6.69-12,11.76-18.56,17.76-16.51,15.07-33.67,29.44-50.45,44.23,0,0-12.57,8.51-.72,28.85,12,20.52,24.58,40.72,38,60.33,16.1,23.55,31.67,47.53,59.5,60.14,16.83,7.62,34.07,11.45,52,11,37.55-.88,71.77-14,104.61-31.14C1021.31,408.68,1025,406.43,1023.73,403.68ZM626.6,219.26c-5.77,11.78-11.94,23.38-17.26,35.36A306.82,306.82,0,0,1,567,323.91c-5.31,6-9.62,12.37-17.26,9.65-9.13-3.75-7.28-13.27-4.62-20.13,0,0,12.7-37,59.73-95.9,4.28-5.36,15-19.16,21.72-16.6C634.63,204.42,626.6,219.26,626.6,219.26Z" transform="translate(0.18)"/><path class="cls-1" d="M986.11,317.73c-13.17,17.79-51.56,69-87.52,39.85-19.13-15.7-19.38-34.74-14.35-57,6-26.53,17.49-50.67,27.7-75.48a76,76,0,0,0,5.6-36.91c-.37-3.66,1-14.32,15.21-8.39,8.38,4.29,17.52,8.12,24.23,14.41,8.67,8.13,15.47,18.78,12.53,31.71A137.14,137.14,0,0,1,960,252.72c-9,19.55-19.65,38.4-27.72,58.31-3.42,8.42-5.3,19.06,2.48,27.73,4.13,4.6,8.33,5.15,14.18,2.88,13.79-5.33,22.51-16.19,31.5-26.95C984.32,310,988.59,313.81,986.11,317.73Z" transform="translate(0.18)"/><path class="cls-1" d="M957.59,72.12s24.88-4.78,37.32,14.11,3.35,33,0,38.75-24.88,32.77-43.3,32.77c-13.54,0-15.47-9.73-13.71-18,4.74-15.06.33-29.13-.64-33.91S927,76.19,957.59,72.12Z" transform="translate(0.18)"/><path class="cls-1" d="M354.81,390c-125,23.32-132.06,86.6-132.06,86.6s-16.29,63.49,70.19,53.71c33.46-3.78,62.24-20.19,84.83-44.29,31.6-30.78,49.84-73.62,54.71-86.09,1.26-3.24,2.56-3.26,4.48-3.45,0,0,72-3.71,142.23,13.73,16.32,4,27.76,1.95,28.2-4.34s-18.67-9-18.67-9c-76.1-15.57-148.07-10-148.07-10-1.66.09-5.16.82-1.27-10,7-19.76,14.37-39.38,21.07-59.24.67-2,1.29-3.95,1.95-5.93,4.9-13.61,15.69-38.44,39.4-80.09,8.16-14.9,6.18-28.93-4.32-42-9.3-11.59-18.69-11.61-27.72,0-3.79,4.3-7.09,4.87-10.17,3.25-4.73-2.77-9.32-5.48-14.07-7.85-9.55-4.77-18.81-8.11-30.45-5.09-20.46,5.31-33.86,18.68-45.63,34.68-19.8,26.91-36,55.6-40.13,89.42-1.83,15-3.61,30.25,3.06,44.83C339.2,363.74,358,370.64,369,361a266.34,266.34,0,0,0,29-30.19c6.24-7.45,17.67-24.78,17.78-24.9-10.08,27.23-21.86,56.43-26.52,74.59-1.26,4.94-1.58,6.64-8.88,7C367,388.13,354.81,390,354.81,390ZM381,404.93a83.89,83.89,0,0,1-3.74,9.7c-8,16.6-14.68,34.18-24.95,49.29-19.39,28.53-46.56,46.11-82.21,45.77-37.4,0-35.16-29.4-35.16-29.4.33-11.07,6.41-20.47,13.83-29.57,27.16-33.33,64.88-43.65,104.47-50.5,6.77-1.17,13.64-1.78,21.44-2.53C380.26,397.23,383.67,397.91,381,404.93Zm72.33-203.32c8.07,3.49,0,18.33,0,18.33-5.77,11.77-11.94,23.37-17.26,35.35a306.57,306.57,0,0,1-42.36,69.3c-5.3,6-9.61,12.37-17.25,9.64-9.13-3.74-7.28-13.27-4.62-20.12,0,0,12.7-37,59.73-95.9C435.91,212.85,446.67,199,453.35,201.61Z" transform="translate(0.18)"/><path class="cls-1" d="M308.86,307.39c-12.92,14.05-29.36,24.17-47.7,31.72-9.41,3.88-18.94,1.17-26.82-5.11-8.41-6.71-11.65-15.5-8.18-26,2.7-8.16,5.53-16.3,8.85-24.23.92-2.21,3.49-4.72,5.75-5.27,26.19-6.32,48.31-18.8,64.4-40.62,11-14.93,14.46-25.56,5.45-38.36-13.66-19.41-38.17-27.78-59.36-14-28.72,18.7-53.39,40.84-65.11,74.46-7.89,22.63-12.68,45.08-7.53,69.1,5.63,26.27,41.3,44,66.16,32.62,20.54-9.42,39.39-21.17,55.78-36.72,0,0,7.69-7.13,12.81-12.54s.43-7.4.43-7.4S312.18,303.94,308.86,307.39Zm-62-45.4c11.61-18.72,27.21-33.32,47.92-42.37,5.37-2.61,13,0,7.63,9.13-8.39,14-20.93,23.63-35.6,30.57C244.22,269.53,246,263.38,246.84,262Z" transform="translate(0.18)"/><path class="cls-1" d="M148.55,109c6.68.87,8.46,5.4,5.58,11.72-2,4.33-4.53,8.4-6.46,12.75q-17.32,39-34.46,78.12c-8.75,20-16.57,40.52-26.14,60.16-7.33,15-10.65,30.43-11.21,47-.77,22.41.24,44.44,10.57,64.85,5.85,11.55,12.61,22.78,25.68,27.67,8.38,3.13,12.74-.37,13.07-9.44.79-21.58,1.51-43.18,2.69-64.74,1.76-32.32,10.8-62.89,23.42-92.45,10.56-24.75,21.58-49.31,32.57-73.87,7.56-16.91,6.77-33.12-3.1-48.86-6.76-10.62-2.91-9.73,6.76-9,28,2.2,55.93,5.42,84,6.29,18.45.56,37.71,2.9,55.22-5.61,7.37-3.59,37.92-25.49,50.09-54,6.63-15.37-18.9-7.39-35.2-5.3-13.21,2.1-26.61,3.13-40,4.35-41.73,3.8-83.38,2.68-125-1.92-28.41-3.14-56.82-7.07-85.34-8.22C58.52,47,29,56.53,6.39,82.21c-8.74,10-7.68,20.28-3,26.47C14.08,123,27,130.49,44.63,134.29c6,1.3,7.94-1.54,4.68-7.15-2.39-4.52-1.82-11.47,4.6-14C53.91,113.15,83.32,100.83,148.55,109Z" transform="translate(0.18)"/></svg>
